<svg display="none" version="1.1" xmlns="http://www.w3.org/2000/svg" xmlns:xlink="http://www.w3.org/1999/xlink">
<defs>

<!-- external link -->
<symbol id="icon-open-outline" viewBox="0 0 512 512">
<path d="M384 224v184a40 40 0 01-40 40H104a40 40 0 01-40-40V168a40 40 0 0140-40h167.48M336 64h112v112M224 288L440 72" fill="none" stroke="currentColor" stroke-linecap="round" stroke-linejoin="round" stroke-width="32"/>
</symbol>

<!-- play -->
<symbol id="icon-play" viewBox="0 0 24 24">
<path d="M0 0h24v24H0z" fill="none"/><path d="M8 5v14l11-7z"/>
</symbol>

<!-- stop -->
<symbol id="icon-stop" viewBox="0 0 24 24">
<path d="M0 0h24v24H0z" fill="none"/><path d="M6 6h12v12H6z"/>
</symbol>

<!-- expand more -->
<symbol id="icon-expand-more" viewBox="0 0 24 24">
<path d="M24 24H0V0h24v24z" fill="none" opacity=".87"/><path d="M16.59 8.59L12 13.17 7.41 8.59 6 10l6 6 6-6-1.41-1.41z"/>
</symbol>

<!-- info -->
<symbol id="icon-info" viewBox="0 0 24 24">
<path d="M0 0h24v24H0V0z" fill="none"/><path d="M11 7h2v2h-2zm0 4h2v6h-2zm1-9C6.48 2 2 6.48 2 12s4.48 10 10 10 10-4.48 10-10S17.52 2 12 2zm0 18c-4.41 0-8-3.59-8-8s3.59-8 8-8 8 3.59 8 8-3.59 8-8 8z"/>
</symbol>

<!-- copy -->
<symbol id="icon-copy" viewBox="0 0 448 512">
<path fill="currentColor" d="M433.941 65.941l-51.882-51.882A48 48 0 0 0 348.118 0H176c-26.51 0-48 21.49-48 48v48H48c-26.51 0-48 21.49-48 48v320c0 26.51 21.49 48 48 48h224c26.51 0 48-21.49 48-48v-48h80c26.51 0 48-21.49 48-48V99.882a48 48 0 0 0-14.059-33.941zM266 464H54a6 6 0 0 1-6-6V150a6 6 0 0 1 6-6h74v224c0 26.51 21.49 48 48 48h96v42a6 6 0 0 1-6 6zm128-96H182a6 6 0 0 1-6-6V54a6 6 0 0 1 6-6h106v88c0 13.255 10.745 24 24 24h88v202a6 6 0 0 1-6 6zm6-256h-64V48h9.632c1.591 0 3.117.632 4.243 1.757l48.368 48.368a6 6 0 0 1 1.757 4.243V112z"></path>
</symbol>

<!-- pencil -->
<symbol id="icon-pencil" viewBox="0 0 24 24">
<path d="M0 0h24v24H0V0z" fill="none"/><path d="M14.06 9.02l.92.92L5.92 19H5v-.92l9.06-9.06M17.66 3c-.25 0-.51.1-.7.29l-1.83 1.83 3.75 3.75 1.83-1.83c.39-.39.39-1.02 0-1.41l-2.34-2.34c-.2-.2-.45-.29-.71-.29zm-3.6 3.19L3 17.25V21h3.75L17.81 9.94l-3.75-3.75z"/>
</symbol>

<!-- edit -->
<symbol id="icon-edit" viewBox="0 0 24 24">
<rect fill="none" height="24" width="24"/><path d="M3,10h11v2H3V10z M3,8h11V6H3V8z M3,16h7v-2H3V16z M18.01,12.87l0.71-0.71c0.39-0.39,1.02-0.39,1.41,0l0.71,0.71 c0.39,0.39,0.39,1.02,0,1.41l-0.71,0.71L18.01,12.87z M17.3,13.58l-5.3,5.3V21h2.12l5.3-5.3L17.3,13.58z"/>
</symbol>

<!-- save -->
<symbol id="icon-save" viewBox="0 0 24 24">
<path d="M0 0h24v24H0V0z" fill="none"/><path d="M17 3H5c-1.11 0-2 .9-2 2v14c0 1.1.89 2 2 2h14c1.1 0 2-.9 2-2V7l-4-4zm2 16H5V5h11.17L19 7.83V19zm-7-7c-1.66 0-3 1.34-3 3s1.34 3 3 3 3-1.34 3-3-1.34-3-3-3zM6 6h9v4H6z"/>
</symbol>

<!-- calendar -->
<symbol id="icon-calendar" viewBox="0 0 24 24">
<path d="M0 0h24v24H0V0z" fill="none"/><path d="M19 3h-1V1h-2v2H8V1H6v2H5c-1.11 0-2 .9-2 2v14c0 1.1.89 2 2 2h14c1.1 0 2-.9 2-2V5c0-1.1-.9-2-2-2zm0 16H5V9h14v10zm0-12H5V5h14v2zM7 11h5v5H7z"/>
</symbol>

<!-- More Horiz -->
<symbol id="icon-more-horiz" viewBox="0 0 40 40">
<path d="M9.125 22.458Q8.083 22.458 7.375 21.729Q6.667 21 6.667 20Q6.667 19 7.396 18.271Q8.125 17.542 9.125 17.542Q10.125 17.542 10.833 18.271Q11.542 19 11.542 20Q11.542 21 10.833 21.729Q10.125 22.458 9.125 22.458ZM20 22.458Q19 22.458 18.271 21.729Q17.542 21 17.542 20Q17.542 19 18.271 18.271Q19 17.542 20 17.542Q21 17.542 21.729 18.271Q22.458 19 22.458 20Q22.458 21 21.729 21.729Q21 22.458 20 22.458ZM30.875 22.458Q29.875 22.458 29.167 21.729Q28.458 21 28.458 20Q28.458 19 29.167 18.271Q29.875 17.542 30.875 17.542Q31.917 17.542 32.625 18.271Q33.333 19 33.333 20Q33.333 21 32.604 21.729Q31.875 22.458 30.875 22.458Z"/>
</symbol>

<!-- assessment -->
<symbol id="icon-assessment" viewBox="0 0 48 48">
<path d="M10 40V18H15V40ZM21.5 40V10H26.5V40ZM33 40V26H38V40Z"/>
</symbol>

<!-- check -->
<symbol id="icon-check" viewBox="0 0 24 24">
<path d="M0 0h24v24H0V0z" fill="none"/><path d="M9 16.17L4.83 12l-1.42 1.41L9 19 21 7l-1.41-1.41L9 16.17z"/>
</symbol>

<!-- tag -->
<symbol id="icon-tag" viewBox="0 0 24 24">
<g><path d="M0,0h24v24H0V0z" fill="none"/></g><g><path d="M21.41,11.41l-8.83-8.83C12.21,2.21,11.7,2,11.17,2H4C2.9,2,2,2.9,2,4v7.17c0,0.53,0.21,1.04,0.59,1.41l8.83,8.83 c0.78,0.78,2.05,0.78,2.83,0l7.17-7.17C22.2,13.46,22.2,12.2,21.41,11.41z M6.5,8C5.67,8,5,7.33,5,6.5S5.67,5,6.5,5S8,5.67,8,6.5 S7.33,8,6.5,8z"/></g>
</symbol>

<!-- plus -->
<symbol id="icon-plus" viewBox="0 0 24 24">
<path d="M0 0h24v24H0V0z" fill="none"/><path d="M19 13h-6v6h-2v-6H5v-2h6V5h2v6h6v2z"/>
</symbol>

<!-- arrow-back -->
<symbol id="icon-arrow-back" viewBox="0 0 48 48">
<path d="M32.75 44 12.75 24 32.75 4 35.55 6.85 18.4 24 35.55 41.15Z"/>
</symbol>

<!-- cloud -->
<symbol id="icon-cloud" viewBox="0 0 48 48">
<path d="M12.55 40q-4.4 0-7.475-3.075Q2 33.85 2 29.45q0-3.9 2.5-6.85 2.5-2.95 6.35-3.55 1-4.85 4.7-7.925T24.1 8.05q5.6 0 9.45 4.075Q37.4 16.2 37.4 21.9v1.2q3.6-.1 6.1 2.325Q46 27.85 46 31.55q0 3.45-2.5 5.95T37.55 40Zm0-3h25q2.25 0 3.85-1.6t1.6-3.85q0-2.25-1.6-3.85t-3.85-1.6H34.4v-4.2q0-4.55-3.05-7.7-3.05-3.15-7.45-3.15t-7.475 3.15q-3.075 3.15-3.075 7.7h-.95q-3.1 0-5.25 2.175T5 29.45q0 3.15 2.2 5.35Q9.4 37 12.55 37ZM24 24Z"/>
</symbol>

<!-- cloud-download -->
<symbol id="icon-cloud-download" viewBox="0 0 48 48">
<path d="M12.55 40q-4.4 0-7.475-3.075Q2 33.85 2 29.45q0-3.95 2.525-6.875t6.325-3.525q.75-4.2 4.1-7.425Q18.3 8.4 22.55 8.4q1.2 0 2.1.675.9.675.9 1.825v14.7l4.15-4.15 2.15 2.15-7.8 7.8-7.8-7.8 2.15-2.15 4.15 4.15V11.15q-4.3.55-6.75 3.775-2.45 3.225-2.45 6.975h-.95q-3.05 0-5.225 2.15T5 29.45q0 3.25 2.25 5.4Q9.5 37 12.55 37h25q2.25 0 3.85-1.6t1.6-3.85q0-2.25-1.6-3.85t-3.85-1.6H34.4v-4.2q0-3.4-1.65-5.875T28.5 12.1V8.85q4.05 1.45 6.475 5.05 2.425 3.6 2.425 8v1.2q3.6-.1 6.1 2.3 2.5 2.4 2.5 6.15 0 3.45-2.5 5.95T37.55 40ZM24 22.65Z"/>
</symbol>

<!-- cloud-upload -->
<symbol id="icon-cloud-upload" viewBox="0 0 48 48">
<path d="M12.5 40q-4.3 0-7.4-3.1Q2 33.8 2 29.5q0-3.9 2.475-6.875t6.375-3.575q1-4.85 4.7-7.925T24.1 8.05q5.65 0 9.475 4.075Q37.4 16.2 37.4 21.9v1.2q3.6-.1 6.1 2.325Q46 27.85 46 31.55q0 3.45-2.5 5.95T37.55 40H25.5q-1.2 0-2.1-.9-.9-.9-.9-2.1V24.1l-4.15 4.15-2.15-2.15 7.8-7.8 7.8 7.8-2.15 2.15-4.15-4.15V37h12.05q2.25 0 3.85-1.6t1.6-3.85q0-2.25-1.6-3.85t-3.85-1.6H34.4v-4.2q0-4.45-3.025-7.65t-7.475-3.2q-4.45 0-7.5 3.2t-3.05 7.65h-.95q-3.1 0-5.25 2.175T5 29.45q0 3.1 2.2 5.325T12.5 37h7v3ZM24 25.5Z"/>
</symbol>

<!-- sync -->
<symbol id="icon-sync" viewBox="0 0 48 48">
<path d="M8.35 40v-3h6.5l-.75-.6q-3.2-2.55-4.65-5.55-1.45-3-1.45-6.7 0-5.3 3.125-9.525Q14.25 10.4 19.35 8.8v3.1q-3.75 1.45-6.05 4.825T11 24.15q0 3.15 1.175 5.475 1.175 2.325 3.175 4.025l1.5 1.05v-6.2h3V40Zm20.35-.75V36.1q3.8-1.45 6.05-4.825T37 23.85q0-2.4-1.175-4.875T32.75 14.6l-1.45-1.3v6.2h-3V8h11.5v3h-6.55l.75.7q3 2.8 4.5 6t1.5 6.15q0 5.3-3.1 9.55-3.1 4.25-8.2 5.85Z"/>
</symbol>

<!-- close -->
<symbol id="icon-close" viewBox="0 0 48 48">
<path d="m12.45 37.65-2.1-2.1L21.9 24 10.35 12.45l2.1-2.1L24 21.9l11.55-11.55 2.1 2.1L26.1 24l11.55 11.55-2.1 2.1L24 26.1Z"/>
</symbol>

</defs>
</svg>
