<svg display="none" version="1.1" xmlns="http://www.w3.org/2000/svg" xmlns:xlink="http://www.w3.org/1999/xlink">
<defs>

<!-- external link -->
<symbol id="icon-open-outline" viewBox="0 0 512 512">
<path d="M384 224v184a40 40 0 01-40 40H104a40 40 0 01-40-40V168a40 40 0 0140-40h167.48M336 64h112v112M224 288L440 72" fill="none" stroke="currentColor" stroke-linecap="round" stroke-linejoin="round" stroke-width="32"/>
</symbol>

<symbol id="icon-open-outline" viewBox="0 0 512 512">
<path d="M384 224v184a40 40 0 01-40 40H104a40 40 0 01-40-40V168a40 40 0 0140-40h167.48M336 64h112v112M224 288L440 72" fill="none" stroke="currentColor" stroke-linecap="round" stroke-linejoin="round" stroke-width="32"/>
</symbol>

<!-- play -->
<symbol id="icon-play" viewBox="0 0 448 512">
<path fill="currentColor" d="M424.4 214.7L72.4 6.6C43.8-10.3 0 6.1 0 47.9V464c0 37.5 40.7 60.1 72.4 41.3l352-208c31.4-18.5 31.5-64.1 0-82.6z"></path>
</symbol>

<!-- stop -->
<symbol id="icon-stop" viewBox="0 0 448 512">
<path fill="currentColor" d="M400 32H48C21.5 32 0 53.5 0 80v352c0 26.5 21.5 48 48 48h352c26.5 0 48-21.5 48-48V80c0-26.5-21.5-48-48-48z"></path>
</symbol>

<!-- sunny -->
<symbol id="icon-sunny-outline" viewBox="0 0 24 24">
<path d="M0 0h24v24H0V0z" fill="none"/><path d="M6.76 4.84l-1.8-1.79-1.41 1.41 1.79 1.79zM1 10.5h3v2H1zM11 .55h2V3.5h-2zm8.04 2.495l1.408 1.407-1.79 1.79-1.407-1.408zm-1.8 15.115l1.79 1.8 1.41-1.41-1.8-1.79zM20 10.5h3v2h-3zm-8-5c-3.31 0-6 2.69-6 6s2.69 6 6 6 6-2.69 6-6-2.69-6-6-6zm0 10c-2.21 0-4-1.79-4-4s1.79-4 4-4 4 1.79 4 4-1.79 4-4 4zm-1 4h2v2.95h-2zm-7.45-.96l1.41 1.41 1.79-1.8-1.41-1.41z"/>
</symbol>

<!-- check circle -->
<symbol id="icon-check-circle" viewBox="0 0 24 24">
<path d="M0 0h24v24H0V0z" fill="none"/><path d="M12 2C6.48 2 2 6.48 2 12s4.48 10 10 10 10-4.48 10-10S17.52 2 12 2zm0 18c-4.41 0-8-3.59-8-8s3.59-8 8-8 8 3.59 8 8-3.59 8-8 8zm4.59-12.42L10 14.17l-2.59-2.58L6 13l4 4 8-8z"/>
</symbol>

<!-- expand more -->
<symbol id="icon-expand-more" viewBox="0 0 24 24">
<path d="M24 24H0V0h24v24z" fill="none" opacity=".87"/><path d="M16.59 8.59L12 13.17 7.41 8.59 6 10l6 6 6-6-1.41-1.41z"/>
</symbol>

<!-- info -->
<symbol id="icon-info" viewBox="0 0 24 24">
<path d="M0 0h24v24H0V0z" fill="none"/><path d="M11 7h2v2h-2zm0 4h2v6h-2zm1-9C6.48 2 2 6.48 2 12s4.48 10 10 10 10-4.48 10-10S17.52 2 12 2zm0 18c-4.41 0-8-3.59-8-8s3.59-8 8-8 8 3.59 8 8-3.59 8-8 8z"/>
</symbol>

</defs>
</svg>
