<svg display="none" version="1.1" xmlns="http://www.w3.org/2000/svg" xmlns:xlink="http://www.w3.org/1999/xlink">
<defs>

<!-- external link -->
<symbol id="icon-open-outline" viewBox="0 0 512 512">
<path d="M384 224v184a40 40 0 01-40 40H104a40 40 0 01-40-40V168a40 40 0 0140-40h167.48M336 64h112v112M224 288L440 72" fill="none" stroke="currentColor" stroke-linecap="round" stroke-linejoin="round" stroke-width="32"/>
</symbol>

<symbol id="icon-open-outline" viewBox="0 0 512 512">
<path d="M384 224v184a40 40 0 01-40 40H104a40 40 0 01-40-40V168a40 40 0 0140-40h167.48M336 64h112v112M224 288L440 72" fill="none" stroke="currentColor" stroke-linecap="round" stroke-linejoin="round" stroke-width="32"/>
</symbol>

<!-- play -->
<symbol id="icon-play" viewBox="0 0 24 24">
<path d="M0 0h24v24H0z" fill="none"/><path d="M8 5v14l11-7z"/>
</symbol>

<!-- stop -->
<symbol id="icon-stop" viewBox="0 0 24 24">
<path d="M0 0h24v24H0z" fill="none"/><path d="M6 6h12v12H6z"/>
</symbol>

<!-- expand more -->
<symbol id="icon-expand-more" viewBox="0 0 24 24">
<path d="M24 24H0V0h24v24z" fill="none" opacity=".87"/><path d="M16.59 8.59L12 13.17 7.41 8.59 6 10l6 6 6-6-1.41-1.41z"/>
</symbol>

<!-- info -->
<symbol id="icon-info" viewBox="0 0 24 24">
<path d="M0 0h24v24H0V0z" fill="none"/><path d="M11 7h2v2h-2zm0 4h2v6h-2zm1-9C6.48 2 2 6.48 2 12s4.48 10 10 10 10-4.48 10-10S17.52 2 12 2zm0 18c-4.41 0-8-3.59-8-8s3.59-8 8-8 8 3.59 8 8-3.59 8-8 8z"/>
</symbol>

<!-- copy -->
<symbol id="icon-copy" viewBox="0 0 448 512">
<path fill="currentColor" d="M433.941 65.941l-51.882-51.882A48 48 0 0 0 348.118 0H176c-26.51 0-48 21.49-48 48v48H48c-26.51 0-48 21.49-48 48v320c0 26.51 21.49 48 48 48h224c26.51 0 48-21.49 48-48v-48h80c26.51 0 48-21.49 48-48V99.882a48 48 0 0 0-14.059-33.941zM266 464H54a6 6 0 0 1-6-6V150a6 6 0 0 1 6-6h74v224c0 26.51 21.49 48 48 48h96v42a6 6 0 0 1-6 6zm128-96H182a6 6 0 0 1-6-6V54a6 6 0 0 1 6-6h106v88c0 13.255 10.745 24 24 24h88v202a6 6 0 0 1-6 6zm6-256h-64V48h9.632c1.591 0 3.117.632 4.243 1.757l48.368 48.368a6 6 0 0 1 1.757 4.243V112z"></path>
</symbol>

<!-- pencil -->
<symbol id="icon-pencil" viewBox="0 0 24 24">
<path d="M0 0h24v24H0V0z" fill="none"/><path d="M14.06 9.02l.92.92L5.92 19H5v-.92l9.06-9.06M17.66 3c-.25 0-.51.1-.7.29l-1.83 1.83 3.75 3.75 1.83-1.83c.39-.39.39-1.02 0-1.41l-2.34-2.34c-.2-.2-.45-.29-.71-.29zm-3.6 3.19L3 17.25V21h3.75L17.81 9.94l-3.75-3.75z"/>
</symbol>

<!-- edit -->
<symbol id="icon-edit" viewBox="0 0 24 24">
<rect fill="none" height="24" width="24"/><path d="M3,10h11v2H3V10z M3,8h11V6H3V8z M3,16h7v-2H3V16z M18.01,12.87l0.71-0.71c0.39-0.39,1.02-0.39,1.41,0l0.71,0.71 c0.39,0.39,0.39,1.02,0,1.41l-0.71,0.71L18.01,12.87z M17.3,13.58l-5.3,5.3V21h2.12l5.3-5.3L17.3,13.58z"/>
</symbol>

<!-- save -->
<symbol id="icon-save" viewBox="0 0 24 24">
<path d="M0 0h24v24H0V0z" fill="none"/><path d="M17 3H5c-1.11 0-2 .9-2 2v14c0 1.1.89 2 2 2h14c1.1 0 2-.9 2-2V7l-4-4zm2 16H5V5h11.17L19 7.83V19zm-7-7c-1.66 0-3 1.34-3 3s1.34 3 3 3 3-1.34 3-3-1.34-3-3-3zM6 6h9v4H6z"/>
</symbol>

<!-- calendar -->
<symbol id="icon-calendar" viewBox="0 0 24 24">
<path d="M0 0h24v24H0V0z" fill="none"/><path d="M19 3h-1V1h-2v2H8V1H6v2H5c-1.11 0-2 .9-2 2v14c0 1.1.89 2 2 2h14c1.1 0 2-.9 2-2V5c0-1.1-.9-2-2-2zm0 16H5V9h14v10zm0-12H5V5h14v2zM7 11h5v5H7z"/>
</symbol>

<!-- drag indicator -->
<symbol id="icon-drag-indicator" viewBox="0 0 24 24" preserveAspectRatio="none">
<path d="M0 0h24v24H0V0z" fill="none"/><path d="M2 16v2h20v-2H2zm0-5v2h20v-2H2zm0-5v2h20V6H2z"/>
</symbol>

</defs>
</svg>
